<svg width="375" height="169" viewBox="0 0 375 169" fill="none" xmlns="http://www.w3.org/2000/svg">
    <path opacity="0.4" fill-rule="evenodd" clip-rule="evenodd"
          d="M0 0.916478L7.85397 20.5514C11.0089 28.4388 22.4427 27.5762 24.3786 19.3047L24.6915 17.9678C26.5176 10.1653 37.2755 9.2896 40.3394 16.6941C42.3028 21.4388 48.0786 23.2545 52.4035 20.4865L57.2021 17.4154C64.675 12.6327 74.638 16.5657 76.8289 25.1633L77.3955 27.3866C80.8499 40.9422 99.5125 42.4327 105.075 29.5971L107.518 23.9577C111.127 15.6289 120.708 11.6831 129.136 15.0543L136.696 18.0783C140.992 19.7967 145.906 18.3796 148.627 14.6378C153.428 8.03587 163.671 9.5527 166.352 17.2629L170.643 29.5975C173.121 36.7224 182.197 38.8029 187.531 33.4688C190.27 30.73 194.321 29.7737 197.995 30.9985L222.662 39.2208C232.611 42.5369 243.483 38.0332 248.173 28.6538L254.259 16.4813C257.978 9.04451 268.017 7.68521 273.579 13.8654C277.319 18.0209 283.462 18.9805 288.291 16.1635L290.341 14.9676C297.72 10.6631 307.202 13.5269 310.964 21.1966L312.362 24.0458C319.124 37.8307 339.135 36.7812 344.757 22.4931C349.251 11.0702 363.725 7.33613 373.045 15.3247L375 17V169H0V0.916478Z"
          fill="url(#paint0_linear)"/>
    <defs>
        <linearGradient id="paint0_linear" x1="0" y1="-7" x2="0" y2="169" gradientUnits="userSpaceOnUse">
            <stop stop-color="#5041AB"/>
            <stop offset="1" stop-color="#161626"/>
        </linearGradient>
    </defs>
</svg>
