<svg width="156" height="175" viewBox="0 0 156 175" fill="none" xmlns="http://www.w3.org/2000/svg">
    <path opacity="0.2" fill-rule="evenodd" clip-rule="evenodd"
          d="M0 6L10.322 11.161C13.5545 12.7772 17.4853 11.7045 19.4487 8.6702C22.5949 3.8079 29.9272 4.56199 32.0179 9.96289L34.3889 16.088C36.7721 22.2445 44.1982 24.6732 49.7586 21.1145L50.2823 20.7793C56.8333 16.5867 65.5447 20.3674 66.9568 28.0159L67.5703 31.3393C69.9872 44.4304 88.0507 46.1502 92.8944 33.7503L96.6441 24.1511C99.2317 17.5268 105.846 13.3727 112.936 13.9182L118.78 14.3677C123.685 14.745 128.279 11.9312 130.171 7.38992C134.237 -2.36933 148.248 -1.80835 151.522 8.24476L156 22V151C156 164.255 145.255 175 132 175H24C10.7452 175 0 164.255 0 151V6Z"
          fill="url(#paint0_linear)"/>
    <defs>
        <linearGradient id="paint0_linear" x1="73" y1="-21" x2="115.856" y2="165.133" gradientUnits="userSpaceOnUse">
            <stop stop-color="#FF7D7D"/>
            <stop offset="1" stop-color="#FF7D7D" stop-opacity="0"/>
        </linearGradient>
    </defs>
</svg>
