<svg width="158" height="46" viewBox="0 0 158 46" fill="none" xmlns="http://www.w3.org/2000/svg">
    <path d="M1 8L11.322 13.161C14.5545 14.7772 18.4853 13.7045 20.4487 10.6702V10.6702C23.5949 5.8079 30.9272 6.56199 33.0179 11.9629L35.3889 18.088C37.7721 24.2445 45.1982 26.6732 50.7586 23.1145L51.2823 22.7793C57.8333 18.5867 66.5447 22.3674 67.9568 30.0159L68.5703 33.3393C70.9872 46.4304 89.0507 48.1502 93.8944 35.7503L97.6441 26.1511C100.232 19.5268 106.846 15.3727 113.936 15.9182L119.78 16.3677C124.685 16.745 129.279 13.9312 131.171 9.38992V9.38992C135.237 -0.369333 149.248 0.19165 152.522 10.2448L157 24"
          stroke="#FF7D7D" stroke-width="3" stroke-linecap="round"/>
</svg>
