<svg width="375" height="45" viewBox="0 0 375 45" fill="none" xmlns="http://www.w3.org/2000/svg">
    <path d="M0 2.91648L7.85397 22.5514C11.0089 30.4388 22.4427 29.5762 24.3786 21.3047L24.6915 19.9678C26.5176 12.1653 37.2755 11.2896 40.3394 18.6941V18.6941C42.3028 23.4388 48.0786 25.2545 52.4035 22.4865L57.2021 19.4154C64.675 14.6327 74.638 18.5657 76.8289 27.1633L77.3955 29.3866C80.8499 42.9422 99.5125 44.4327 105.075 31.5971L107.518 25.9577C111.127 17.6289 120.708 13.6831 129.136 17.0543L136.696 20.0783C140.992 21.7967 145.906 20.3796 148.627 16.6378V16.6378C153.428 10.0359 163.671 11.5527 166.352 19.2629L170.643 31.5975C173.121 38.7224 182.197 40.8029 187.531 35.4688V35.4688C190.27 32.73 194.321 31.7737 197.995 32.9985L222.662 41.2208C232.611 44.5369 243.483 40.0332 248.173 30.6538L254.259 18.4813C257.978 11.0445 268.017 9.68521 273.579 15.8654V15.8654C277.319 20.0209 283.462 20.9805 288.291 18.1635L290.341 16.9676C297.72 12.6631 307.202 15.5269 310.964 23.1966L312.362 26.0458C319.124 39.8307 339.135 38.7812 344.757 24.4931V24.4931C349.251 13.0702 363.725 9.33613 373.045 17.3247L375 19"
          stroke="#5041AB" stroke-width="4" stroke-linecap="round"/>
</svg>
